<svg width="64" height="64" viewBox="0 0 64 64" fill="none" xmlns="http://www.w3.org/2000/svg">
  <defs>
    <linearGradient id="surface" x1="8" y1="7" x2="57" y2="58" gradientUnits="userSpaceOnUse">
      <stop stop-color="#171C29"/>
      <stop offset="1" stop-color="#0B0E14"/>
    </linearGradient>
    <linearGradient id="trace" x1="16" y1="43" x2="50" y2="20" gradientUnits="userSpaceOnUse">
      <stop stop-color="#58D6C7"/>
      <stop offset="0.52" stop-color="#F5F7FA"/>
      <stop offset="1" stop-color="#7C8DFF"/>
    </linearGradient>
    <filter id="glow" x="-50%" y="-50%" width="200%" height="200%">
      <feGaussianBlur stdDeviation="2.2" result="blur"/>
      <feMerge>
        <feMergeNode in="blur"/>
        <feMergeNode in="SourceGraphic"/>
      </feMerge>
    </filter>
  </defs>

  <rect x="1" y="1" width="62" height="62" rx="18" fill="url(#surface)"/>
  <rect x="1.5" y="1.5" width="61" height="61" rx="17.5" stroke="#7C8DFF" stroke-opacity="0.28"/>

  <path d="M21 13H14C13.448 13 13 13.448 13 14V21" stroke="#7C8DFF" stroke-width="3" stroke-linecap="round"/>
  <path d="M43 13H50C50.552 13 51 13.448 51 14V21" stroke="#7C8DFF" stroke-width="3" stroke-linecap="round"/>
  <path d="M21 51H14C13.448 51 13 50.552 13 50V43" stroke="#58D6C7" stroke-width="3" stroke-linecap="round"/>
  <path d="M43 51H50C50.552 51 51 50.552 51 50V43" stroke="#58D6C7" stroke-width="3" stroke-linecap="round"/>

  <path d="M16 43L27 32L37 36L49 20" stroke="#253044" stroke-width="6" stroke-linecap="round" stroke-linejoin="round"/>
  <path d="M16 43L27 32L37 36L49 20" stroke="url(#trace)" stroke-width="2.5" stroke-linecap="round" stroke-linejoin="round"/>
  <circle cx="16" cy="43" r="3.5" fill="#58D6C7" filter="url(#glow)"/>
  <path d="M27 27L32 32L27 37L22 32L27 27Z" fill="#F5F7FA"/>
  <circle cx="37" cy="36" r="3" fill="#10131A" stroke="#F5F7FA" stroke-width="2"/>
  <circle cx="49" cy="20" r="3.5" fill="#7C8DFF" filter="url(#glow)"/>
</svg>
